<?xml version="1.0" encoding="UTF-8" standalone="no"?>
<!-- Created with Inkscape (http://www.inkscape.org/) -->

<svg
   width="52.104507mm"
   height="44.970165mm"
   viewBox="0 0 52.104507 44.970165"
   version="1.1"
   id="svg1"
   xml:space="preserve"
   xmlns="http://www.w3.org/2000/svg"
   xmlns:svg="http://www.w3.org/2000/svg"><defs
     id="defs1" /><g
     id="layer1"
     transform="translate(-486.47559,54.403902)"><g
       transform="matrix(0.24845742,0.16018416,0.13916166,-0.28599073,43.528238,236.19102)"
       id="g267"
       style="clip-rule:evenodd;fill:#755ae7;fill-opacity:1;fill-rule:evenodd;stroke-width:2.85407;stroke-linecap:round;stroke-linejoin:round;stroke-miterlimit:1.5;stroke-dasharray:none">
        <path
   d="m 1041.98,1486.62 h 75.9 l -20.47,37.78 -25.77,1.05 z"
   style="fill:#755ae7;fill-opacity:1;stroke:#231f20;stroke-width:2.85407;stroke-dasharray:none"
   id="path266" />
    </g><g
       transform="matrix(0.27053459,0.10236106,0.08892723,-0.311403,94.502832,334.70904)"
       id="g270"
       style="clip-rule:evenodd;fill:#755ae7;fill-opacity:1;fill-rule:evenodd;stroke-width:2.85407;stroke-linecap:round;stroke-linejoin:round;stroke-miterlimit:1.5;stroke-dasharray:none">
        <path
   d="m 1044.46,1492.9 h 75.9 l -27.1044,35.3328 -19.1356,3.4872 z"
   style="fill:#755ae7;fill-opacity:1;stroke:#231f20;stroke-width:2.85407;stroke-dasharray:none"
   id="path267" />
    </g><g
       transform="matrix(-0.24846152,0.16017708,0.13915551,0.28599545,542.3219,-608.34574)"
       id="g271"
       style="clip-rule:evenodd;fill:#755ae7;fill-opacity:1;fill-rule:evenodd;stroke-width:2.85406;stroke-linecap:round;stroke-linejoin:round;stroke-miterlimit:1.5;stroke-dasharray:none">
        <path
   d="m 975.161,1503.83 h 75.899 l -20.47,-37.78 -25.76,-1.05 z"
   style="fill:#755ae7;fill-opacity:1;stroke:#231f20;stroke-width:2.85406;stroke-dasharray:none"
   id="path270" />
    </g><g
       transform="matrix(-0.270538,0.10235004,0.08891767,0.31140693,636.75034,-595.86298)"
       id="g339"
       style="clip-rule:evenodd;fill:#755ae7;fill-opacity:1;fill-rule:evenodd;stroke-width:2.85406;stroke-linecap:round;stroke-linejoin:round;stroke-miterlimit:1.5;stroke-dasharray:none">
        <path
   d="m 972.356,1519.14 h 75.904 l -25.8682,-36.2522 -20.3718,-2.5678 z"
   style="fill:#755ae7;fill-opacity:1;stroke:#231f20;stroke-width:2.85406;stroke-dasharray:none"
   id="path334" />
    </g><g
       transform="matrix(-0.28477587,0,0,0.32779565,806.04717,-528.2517)"
       id="g340"
       style="clip-rule:evenodd;fill:#6d54e4;fill-opacity:1;fill-rule:evenodd;stroke-width:2.85406;stroke-linecap:round;stroke-linejoin:round;stroke-miterlimit:1.5;stroke-dasharray:none">
        <path
   d="m 965.876,1543.99 h 152.344 l -28.52,-39.67 h -95.304 z"
   style="fill:#6d54e4;fill-opacity:1;stroke:#231f20;stroke-width:2.85406;stroke-dasharray:none"
   id="path339" />
    </g><g
       transform="matrix(-0.2755136,0.08291991,0.07203754,0.31713416,708.23767,-605.3712)"
       id="g341"
       style="clip-rule:evenodd;fill:#755ae7;fill-opacity:1;fill-rule:evenodd;stroke-width:2.85406;stroke-linecap:round;stroke-linejoin:round;stroke-miterlimit:1.5;stroke-dasharray:none">
        <path
   d="M 1044.64,1544.86 H 1126 l -10.26,-39.24 -42.34,-0.26 z"
   style="fill:#755ae7;fill-opacity:1;stroke:#231f20;stroke-width:2.85406;stroke-dasharray:none"
   id="path340" />
    </g><g
       transform="matrix(0.27551429,0.08291755,0.07203548,-0.31713496,111.62698,371.51911)"
       id="g342"
       style="clip-rule:evenodd;fill:#755ae7;fill-opacity:1;fill-rule:evenodd;stroke-width:2.85406;stroke-linecap:round;stroke-linejoin:round;stroke-miterlimit:1.5;stroke-dasharray:none">
        <path
   d="m 965.928,1514.92 h 81.362 l -10.26,39.24 -42.346,0.26 z"
   style="fill:#755ae7;fill-opacity:1;stroke:#231f20;stroke-width:2.85406;stroke-dasharray:none"
   id="path341" />
    </g><g
       transform="matrix(0.28477587,0,0,0.32779565,212.54761,-535.15192)"
       id="g353"
       style="clip-rule:evenodd;fill:#755ae7;fill-opacity:1;fill-rule:evenodd;stroke-width:2.85406;stroke-linecap:round;stroke-linejoin:round;stroke-miterlimit:1.5;stroke-dasharray:none">
        <path
   d="m 1038.6387,1533.701 -42.22481,-34.2281 -30.20489,24.6571 75.841,41.1"
   style="fill:#755ae7;fill-opacity:1;fill-rule:nonzero;stroke:#231f20;stroke-width:2.85406;stroke-dasharray:none"
   id="path353" />
    </g><g
       transform="matrix(-0.28477587,0,0,0.32779565,805.96202,-535.22131)"
       id="g385"
       style="clip-rule:evenodd;fill:#755ae7;fill-opacity:1;fill-rule:evenodd;stroke-width:2.85406;stroke-linecap:round;stroke-linejoin:round;stroke-miterlimit:1.5;stroke-dasharray:none">
        <path
   d="m 1038.6387,1533.701 -42.22481,-34.2281 -30.20489,24.6571 75.841,41.1"
   style="fill:#755ae7;fill-opacity:1;fill-rule:nonzero;stroke:#231f20;stroke-width:2.85406;stroke-dasharray:none"
   id="path384" />
    </g></g><g
     id="g384"
     transform="matrix(1.2617297,0.01743016,-0.01743016,1.2617297,-447.27061,-256.66667)"><path
       style="fill:#ffffff;stroke:none;stroke-width:7.60331;stroke-linecap:round;stroke-dasharray:none"
       d="m 109.18489,87.203774 c -5.04485,1.321269 -10.089694,2.642538 -15.254708,4.744586 -5.165015,2.102048 -10.449986,4.98476 -14.834232,9.54921 -4.384245,4.56444 -7.867524,10.81032 -9.849433,17.71703 -1.981909,6.90671 -2.462362,14.47383 -1.381297,22.76188 1.081064,8.28805 3.723553,17.29653 7.447179,24.62362 3.723626,7.3271 8.528144,12.97241 15.254692,16.63594 6.726547,3.66354 15.374679,5.34512 23.602659,5.04481 8.22799,-0.30031 16.03533,-2.58246 21.98108,-7.08685 5.94576,-4.5044 10.02959,-11.23072 12.55203,-18.13743 2.52243,-6.90671 3.48334,-13.99337 4.38421,-20.96013 0.90087,-6.96676 1.74166,-13.8132 0.24018,-21.20038 -1.50148,-7.38718 -5.34509,-15.31463 -10.75035,-20.900031 -5.40527,-5.585401 -12.37182,-8.82845 -17.24604,-10.564358 -4.87422,-1.735909 -7.65586,-1.964602 -10.43756,-2.193299"
       id="path354"
       transform="matrix(0.18953503,0.12301233,-0.12258783,0.18888098,371.37016,181.06587)" /><path
       style="fill:none;stroke:#1a1a1a;stroke-width:7.60331;stroke-linecap:round;stroke-dasharray:none"
       d="m 36.75531,76.033042 c 6.125885,-5.885655 12.25177,-11.77131 18.678009,-16.515903 6.426239,-4.744594 13.152566,-8.347984 19.458684,-10.029597 6.306118,-1.681613 12.191655,-1.441387 16.756072,2.4e-5 4.564418,1.441411 7.80747,4.083897 10.209795,8.348052 2.40232,4.264156 3.96379,10.149693 5.04483,15.314699 1.08105,5.165005 1.68161,9.609187 -0.54057,12.49197 -2.22219,2.882783 -7.266934,4.204025 -12.431948,6.306073 -5.165015,2.102048 -10.449986,4.98476 -14.834232,9.54921 -4.384245,4.56444 -7.867524,10.81032 -9.849433,17.71703 -1.981909,6.90671 -2.462362,14.47383 -1.381297,22.76188 1.081064,8.28805 3.723553,17.29653 7.447179,24.62362 3.723626,7.3271 8.528144,12.97241 15.254692,16.63594 6.726547,3.66354 15.374679,5.34512 23.602659,5.04481 8.22799,-0.30031 16.03533,-2.58246 21.98108,-7.08685 5.94576,-4.5044 10.02959,-11.23072 12.55203,-18.13743 2.52243,-6.90671 3.48334,-13.99337 4.38421,-20.96013 0.90087,-6.96676 1.74166,-13.8132 0.24018,-21.20038 -1.50148,-7.38718 -5.34509,-15.31463 -10.75035,-20.900031 -5.40527,-5.585401 -12.37182,-8.82845 -16.99628,-11.110655 -4.62447,-2.282206 -6.90661,-3.603445 -6.96665,-6.246025 -0.06,-2.642579 2.10199,-6.606306 5.01958,-11.328935 2.91758,-4.722629 6.59068,-10.204084 11.66403,-13.859824 5.07336,-3.65574 11.81396,-5.561244 16.44027,-5.962795 4.62632,-0.401551 7.93805,0.632921 10.66858,3.051251 2.73052,2.41833 5.01271,6.262022 7.53513,11.306869 2.52243,5.044847 5.28503,11.29072 7.8075,16.756079 2.52247,5.46536 4.80457,10.149674 9.63471,13.315174 4.83013,3.1655 12.20787,4.811842 19.58577,6.458212"
       id="path355"
       transform="matrix(0.18953503,0.12301233,-0.12258783,0.18888098,371.37016,181.06587)" /><path
       style="fill:#00aa44;fill-opacity:0.811502;stroke:none;stroke-width:1.21799;stroke-dasharray:none"
       d="m 49.133771,22.121376 c -0.586921,0.209615 -1.509229,0.824487 -2.096153,1.998348 -0.586925,1.173862 -0.838457,2.906646 -0.64281,4.373963 0.195647,1.467317 0.838453,2.669085 1.579102,3.549475 0.740649,0.880389 1.579091,1.439351 2.669104,1.551143 1.090012,0.111791 2.431521,-0.223586 3.423704,-0.88039 0.992184,-0.656803 1.634991,-1.63499 1.970376,-3.297959 0.335385,-1.662969 0.363334,-4.01061 -0.02796,-5.366125 -0.391289,-1.355514 -1.201784,-1.718839 -1.593064,-1.159851 -0.39128,0.558988 -0.363331,2.040238 -0.433204,3.339862 -0.06987,1.299625 -0.237561,2.41755 -0.600902,2.794853 -0.363341,0.377302 -0.922304,0.01398 -1.62103,-0.265511 -0.698727,-0.279489 -1.53717,-0.475125 -2.152044,-0.377301 -0.614875,0.09782 -1.006149,0.489098 -1.20179,0.447171 -0.195641,-0.04193 -0.195641,-0.517045 -0.04192,-1.299619 0.153721,-0.782574 0.46115,-1.872551 0.796538,-2.794865 0.335388,-0.922315 0.698713,-1.676913 0.754608,-2.152042 0.0559,-0.475129 -0.195638,-0.670767 -0.78256,-0.461152 z"
       id="path356"
       transform="matrix(1.3283573,0.86213254,-0.86013346,1.3252772,330.89331,139.9986)" /><path
       style="fill:#0b2817;stroke:none;stroke-width:0.801243;stroke-dasharray:none"
       d="m 51.187999,30.38021 c -0.51705,0.02795 -1.159871,0.167692 -1.32756,0.447183 -0.167688,0.279491 0.139741,0.698714 0.433205,0.908328 0.293464,0.209615 0.572946,0.209615 0.936283,-0.02795 0.363336,-0.237568 0.810507,-0.712687 0.838451,-0.992174 0.02794,-0.279488 -0.363329,-0.363333 -0.880379,-0.335384 z"
       id="path357"
       transform="matrix(1.9110662,2.1866366,-2.1815662,1.9066348,342.07974,53.823711)" /><path
       style="fill:none;stroke:#333333;stroke-width:0.365396;stroke-dasharray:none;stroke-opacity:1"
       d="m 50.335574,25.614953 c 0.279492,0.768604 1.089988,1.159878 1.579091,0.964229 0.489103,-0.195648 0.656792,-0.978196 0.768588,-1.760767 0.111795,-0.78257 0.167691,-1.565117 0.05589,-2.193967 -0.111797,-0.62885 -0.391278,-1.103968 -0.782564,-1.089988 -0.391287,0.01398 -0.894352,0.517045 -1.27166,1.341531 -0.377307,0.824486 -0.628841,1.970359 -0.349349,2.738962 z"
       id="path358"
       transform="matrix(1.1825066,0.76747229,-0.76569269,1.1797647,335.97678,148.80831)" /><ellipse
       style="fill:#d40000;fill-opacity:0.811502;stroke:none;stroke-width:0.934572;stroke-linecap:round;stroke-linejoin:bevel;stroke-dasharray:none"
       id="ellipse358"
       cx="433.57043"
       cy="-86.362755"
       rx="0.53097457"
       ry="1.8672835"
       transform="rotate(41.984767)" /></g></svg>
